<?xml version="1.0" encoding="utf-8"?>
<!-- Generator: Adobe Illustrator 17.0.0, SVG Export Plug-In . SVG Version: 6.00 Build 0)  -->
<!DOCTYPE svg PUBLIC "-//W3C//DTD SVG 1.1//EN" "http://www.w3.org/Graphics/SVG/1.1/DTD/svg11.dtd">
<svg version="1.1" id="Layer_1" xmlns="http://www.w3.org/2000/svg" xmlns:xlink="http://www.w3.org/1999/xlink" x="0px" y="0px"
	 width="496.721px" height="500px" viewBox="0 0 496.721 500" enable-background="new 0 0 496.721 500" xml:space="preserve">
<g>
	<path fill="#2890CA" d="M249.68,493.124c-0.465,0.32-0.742-0.118-1.05-0.295c-29.231-16.832-58.455-33.677-87.692-50.498
		c-0.954-0.549-1.544-1.227-1.966-2.251c-29.596-71.838-59.217-143.666-88.847-215.489c-0.374-0.906-0.554-1.801-0.553-2.782
		c0.018-12.959,0.003-25.917,0.033-38.876c0.002-0.876-0.268-1.332-1.029-1.767c-6.87-3.927-13.708-7.91-20.571-11.849
		c-0.633-0.363-1.001-0.82-1.274-1.485c-12.188-29.585-24.391-59.163-36.596-88.741c-0.148-0.359-0.185-0.781-0.541-1.034
		c0-11.6,0-23.2,0-34.8c0.429,0.007,0.733,0.295,1.073,0.491c2.772,1.594,5.541,3.193,8.308,4.797
		c6.88,3.988,13.758,7.979,20.637,11.969c-0.006,11.264-0.012,22.528-0.015,33.792c0,0.272-0.066,0.565,0.164,0.792
		c0.062,0.051,0.118,0.111,0.186,0.151c9.688,5.602,19.376,11.202,29.066,16.8c0.162,0.094,0.332,0.231,0.57,0.047
		c0-11.41,0-22.846,0-34.283c0.216,0.099,0.442,0.18,0.647,0.299c9.955,5.816,19.995,11.485,29.916,17.361
		c9.68,5.734,19.469,11.285,29.21,16.916c0.341,0.503,0.238,1.076,0.238,1.626c0.004,10.644,0,21.289,0.012,31.933
		c0,0.415-0.184,0.882,0.198,1.245c0,0,0.017,0.009,0.017,0.009c0.107,0.423,0.167,0.865,0.327,1.266
		c2.113,5.298,4.244,10.588,6.362,15.884c5.228,13.073,10.452,26.146,15.675,39.221c5.445,13.63,10.887,27.261,16.331,40.891
		c5.356,13.408,10.714,26.814,16.069,40.222c5.444,13.63,10.885,27.261,16.33,40.891c5.355,13.408,10.699,26.821,16.085,40.216
		c0.814,2.025,1.433,4.14,2.583,6.023c-0.097,0.565,0.32,0.704,0.706,0.926c9.608,5.536,19.209,11.083,28.812,16.628
		c2.27,1.321,4.539,2.645,6.812,3.961c6.447,3.734,12.881,7.49,19.357,11.174c1.362,0.775,2.597,1.846,4.222,2.108
		c0.027,0.1,0.054,0.199,0.081,0.299c0.005,23.016,0.01,46.032,0.015,69.048l-0.004,0.003c-0.54-0.048-0.968-0.36-1.413-0.618
		c-2.136-1.242-4.255-2.512-6.395-3.747c-6.939-4.004-13.885-7.997-20.828-11.995c-0.371-0.213-0.742-0.724-1.134-0.516
		c-0.468,0.249-0.207,0.869-0.208,1.319c-0.013,10.388-0.011,20.775-0.007,31.163C249.599,492.09,249.652,492.607,249.68,493.124z
		 M129.364,251.012c-2.371-1.626-4.93-2.932-7.414-4.365c-7.117-4.108-14.242-8.205-21.334-12.355
		c-1.06-0.62-1.031-0.168-1.03,0.678c0.015,9.237,0.007,18.475,0.012,27.712c0.001,1.839,0.031,3.677,0.048,5.516
		c0.181,0.15,0.345,0.33,0.546,0.447c9.548,5.516,19.104,11.018,28.64,16.557c0.63,0.366,1.05,0.275,1.614-0.052
		c6.636-3.849,13.283-7.677,19.927-11.512c3.04-1.755,6.077-3.512,9.209-5.323c-0.364-0.241-0.613-0.424-0.879-0.578
		c-8.512-4.913-17.021-9.833-25.546-14.723C131.918,252.305,130.784,251.384,129.364,251.012z M249.526,458.781
		c0-11.627,0-23.04,0-34.609c-10.026,5.793-19.93,11.515-29.957,17.308C229.629,447.29,239.513,452.999,249.526,458.781z
		 M159.595,389.657c0,5.36-0.002,10.719,0.002,16.079c0.001,1.217,0.091,1.264,1.17,0.65c1.734-0.987,3.47-1.971,5.197-2.97
		c7.529-4.356,15.047-8.73,22.591-13.06c0.845-0.485,0.903-0.719,0.044-1.209c-2.738-1.562-5.447-3.173-8.177-4.748
		c-6.567-3.789-13.139-7.568-19.709-11.351c-0.302-0.174-0.6-0.553-0.947-0.349c-0.345,0.203-0.163,0.66-0.164,1.001
		C159.592,379.018,159.595,384.337,159.595,389.657z"/>
	<path fill="#E9E9E9" d="M9.595,43.018c4.534-2.591,9.073-5.173,13.6-7.777c5.356-3.08,10.585-6.405,16.078-9.215
		c7.98-4.084,15.551-8.861,23.352-13.243c2.05-1.152,4.085-2.333,6.107-3.533c0.634-0.376,1.182-0.327,1.79,0.028
		c3.237,1.888,6.481,3.762,9.724,5.638c4.9,2.834,9.767,5.725,14.71,8.482c6.57,3.664,13.134,7.337,19.63,11.133
		c6.953,4.062,13.958,8.033,20.931,12.06c5.937,3.428,11.856,6.888,17.791,10.319c6.315,3.651,12.639,7.287,18.962,10.924
		c5.665,3.258,11.334,6.51,17.007,9.756c0.199,0.114,0.299,0.242,0.324,0.452c-0.583,0.06-1.022,0.429-1.502,0.706
		c-6.957,4.013-13.908,8.038-20.868,12.046c-10.456,6.021-20.908,12.048-31.385,18.033c-2.143,1.224-4.169,2.669-6.493,3.566
		c-9.741-5.631-19.53-11.182-29.21-16.916c-9.921-5.877-19.961-11.545-29.916-17.361c-0.204-0.119-0.431-0.2-0.646-0.299
		c-0.052,0.004-0.105,0.008-0.157,0.013c-0.305-0.515-0.862-0.698-1.335-0.973c-6.601-3.831-13.204-7.658-19.82-11.464
		c-2.871-1.651-5.771-3.252-8.658-4.876c-6.879-3.99-13.757-7.981-20.637-11.969c-2.767-1.604-5.536-3.203-8.308-4.797
		c-0.34-0.196-0.644-0.484-1.073-0.491C9.595,43.178,9.595,43.098,9.595,43.018z"/>
	<path fill="#2890CA" d="M429.545,42.772c0.003-11.358,0.006-22.716,0.009-34.074c0.014-0.08,0.027-0.16,0.041-0.24
		c0.08,0,0.16,0,0.24,0c2.44,1.721,5.109,3.057,7.679,4.558c7.291,4.259,14.605,8.477,21.911,12.712
		c-0.183,0.149-0.349,0.326-0.55,0.442c-9.465,5.467-18.932,10.931-28.407,16.38C430.207,42.699,429.954,43.137,429.545,42.772z"/>
	<path fill="#E9E9E9" d="M429.595,8.458c-0.014,0.08-0.027,0.16-0.041,0.24c-0.066-0.08-0.133-0.16-0.199-0.24
		C429.435,8.458,429.515,8.458,429.595,8.458z"/>
	<path fill="#62AFE1" d="M279.586,475.965c-0.005-23.016-0.01-46.032-0.014-69.048c0.743-0.156,1.323-0.576,1.786-1.213
		c-0.622,0.305-1.245,0.609-1.867,0.914c-1.625-0.262-2.861-1.334-4.222-2.108c-6.476-3.684-12.909-7.441-19.357-11.174
		c-2.273-1.316-4.541-2.64-6.812-3.961c0.431,0.006,0.743-0.277,1.08-0.473c8.084-4.677,16.173-9.346,24.236-14.061
		c1.676-0.98,3.465-1.786,4.972-3.046c0.182-0.305,0.409-0.593,0.54-0.919c1.34-3.329,2.658-6.666,3.994-9.997
		c4.54-11.319,9.085-22.636,13.628-33.953c0.415,0.28,0.656-0.107,0.934-0.267c9.628-5.546,19.254-11.095,28.872-16.657
		c3.908-2.26,7.799-4.55,11.697-6.827c0.457-0.263,0.282-0.709,0.286-1.081c0.144-11.942-0.038-23.884,0.182-35.829
		c0.263-14.307,0.062-28.622,0.063-42.933c0-0.596-0.024-1.185,0.21-1.768c2.331-5.808,4.654-11.619,6.957-17.437
		c0.265-0.669,0.567-0.697,1.145-0.361c4.861,2.827,9.735,5.631,14.604,8.443c2.302,1.329,4.602,2.661,7.1,4.105
		c0-11.679,0-23.134,0-34.589c7.591-4.392,15.188-8.775,22.771-13.182c2.409-1.4,4.895-2.671,7.195-4.254
		c0.007-0.12,0.02-0.239,0.02-0.359c0.003-22.555,0.005-45.111,0.01-67.666c0-0.405-0.01-0.8-0.244-1.151
		c0.434,0.041,0.748-0.221,1.093-0.421c6.986-4.03,13.98-8.048,20.96-12.087c2.829-1.637,5.631-3.319,8.446-4.98
		c0.06,0.505,0.526,0.552,0.855,0.743c3.831,2.223,7.665,4.44,11.499,6.657c5.354,3.096,10.703,6.201,16.067,9.279
		c1.29,0.741,1.316,0.7,1.317-0.769c0.002-10.999,0.003-21.998,0.004-32.997c0.188-0.141,0.364-0.303,0.566-0.42
		c4.525-2.621,9.055-5.232,13.579-7.856c5.213-3.024,10.419-6.058,15.629-9.088c0.385,0.359,0.219,0.828,0.219,1.247
		c0.01,10.838,0.004,21.675,0.017,32.513c0.001,0.658-0.136,1.254-0.384,1.854c-9.495,22.997-18.986,45.996-28.474,68.997
		c-9.138,22.151-18.267,44.306-27.408,66.455c-12.188,29.533-24.389,59.061-36.576,88.594
		c-10.298,24.956-20.581,49.917-30.877,74.874c-8.682,21.043-17.375,42.081-26.045,63.13c-0.252,0.612-0.663,0.962-1.19,1.264
		c-11.921,6.844-23.841,13.688-35.76,20.535c-7.38,4.239-14.758,8.483-22.138,12.722
		C280.373,475.576,279.975,475.763,279.586,475.965z M288.24,401.825c-0.189,0.019-0.377,0.041-0.477,0.238
		c-0.032,0.012-0.068,0.019-0.095,0.037c-0.016,0.011-0.017,0.041-0.025,0.062c0.036-0.037,0.072-0.075,0.108-0.112
		c0.19-0.017,0.377-0.041,0.477-0.237c0.03-0.012,0.064-0.02,0.09-0.038c0.015-0.01,0.017-0.038,0.025-0.058
		C288.308,401.753,288.274,401.789,288.24,401.825z M288.951,401.33c0.07-0.08,0.297,0.102,0.262-0.156
		c-0.084,0.055-0.167,0.111-0.251,0.166c-0.029,0.014-0.062,0.023-0.087,0.043c-0.014,0.011-0.016,0.038-0.023,0.057
		C288.884,401.404,288.917,401.367,288.951,401.33z M284.868,403.728c0.241-0.019,0.531,0.058,0.612-0.321
		c-0.324-0.088-0.467,0.111-0.596,0.337c-0.037,0.011-0.079,0.015-0.11,0.035c-0.017,0.011-0.017,0.049-0.024,0.074
		C284.789,403.812,284.829,403.77,284.868,403.728z M287.041,402.546c-0.234,0.014-0.487-0.016-0.617,0.249
		c-0.01,0.021,0.031,0.096,0.05,0.096c0.264,0.007,0.43-0.144,0.553-0.358c0.033-0.012,0.07-0.019,0.098-0.039
		c0.015-0.011,0.016-0.043,0.023-0.066C287.113,402.467,287.077,402.507,287.041,402.546z M309.784,389.656
		c-0.355,0.325-0.2,0.753-0.2,1.133c-0.003,10.678,0.003,21.357,0.019,32.035c0,0.329-0.152,0.712,0.204,1.019
		c0.147-0.059,0.3-0.099,0.432-0.176c9.378-5.412,18.755-10.824,28.125-16.25c0.316-0.183,0.793-0.279,0.774-0.809
		c0.77-0.225,0.429-0.865,0.43-1.31c0.02-10.549,0.016-21.098,0.016-31.646c0-0.2-0.006-0.4,0-0.599
		c0.02-0.622-0.119-0.791-0.744-0.419c-1.986,1.184-4.012,2.301-6.015,3.455c-6.043,3.484-12.098,6.948-18.115,10.478
		C313.041,387.546,311.217,388.295,309.784,389.656z M369.526,251.003c1.808,1.019,3.41,1.901,4.993,2.817
		c7.977,4.614,15.947,9.238,23.923,13.853c1.054,0.61,1.146,0.551,1.147-0.689c0.002-10.677,0.003-21.354,0-32.03
		c0-1.22-0.088-1.264-1.165-0.657c-0.139,0.078-0.267,0.175-0.405,0.255c-6.532,3.765-13.066,7.528-19.597,11.296
		C375.522,247.519,372.629,249.204,369.526,251.003z M284.381,403.991c-0.386,0.163-0.728,0.136-0.869,0.682
		C283.867,404.513,284.181,404.489,284.381,403.991z M282.756,405.015c-0.492,0.069-0.79,0.135-0.931,0.539
		C282.219,405.585,282.446,405.416,282.756,405.015z M285.949,403.18l0.042-0.053l-0.068-0.009L285.949,403.18z M283.081,404.768
		l-0.048,0.064l0.081,0.009L283.081,404.768z"/>
	<path fill="#E9E9E9" d="M489.368,43.175c-5.209,3.03-10.416,6.064-15.629,9.088c-4.523,2.624-9.054,5.235-13.579,7.856
		c-0.202,0.117-0.378,0.279-0.566,0.42c-0.183,0.072-0.379,0.121-0.547,0.218c-9.733,5.62-19.464,11.245-29.194,16.869
		c-2.815,1.661-5.617,3.343-8.446,4.98c-6.981,4.039-13.974,8.056-20.96,12.087c-0.345,0.199-0.659,0.462-1.093,0.421
		c-7.222-4.175-14.436-8.364-21.671-12.518c-2.695-1.548-5.315-3.231-8.119-4.586c-0.433-0.047-0.76,0.207-1.1,0.404
		c-9.625,5.561-19.247,11.126-28.87,16.69c-5.868-3.385-11.742-6.759-17.603-10.157c-4.063-2.356-8.109-4.743-12.162-7.116
		c1.213-1.259,2.84-1.879,4.305-2.737c6.084-3.565,12.206-7.067,18.308-10.601c7.067-4.094,14.129-8.198,21.192-12.298
		c5.1-2.96,10.141-6.027,15.314-8.852c5.209-2.845,10.291-5.905,15.459-8.819c4.894-2.76,9.752-5.581,14.608-8.406
		c0.444-0.258,0.692-0.274,1.148-0.009c7.75,4.506,15.517,8.982,23.281,13.463c1.622,0.936,3.243,1.873,4.871,2.799
		c0.378,0.215,0.758,0.46,1.23,0.404c0.408,0.365,0.661-0.073,0.922-0.222c9.475-5.449,18.942-10.913,28.407-16.38
		c0.201-0.116,0.368-0.293,0.55-0.442c4.346,2.49,8.693,4.977,13.036,7.471c5.002,2.873,10.002,5.751,14.998,8.636
		C488.132,42.224,488.907,42.478,489.368,43.175z"/>
	<path fill="#62AFE1" d="M249.68,493.124c-0.028-0.517-0.081-1.034-0.081-1.551c-0.005-10.387-0.007-20.775,0.007-31.163
		c0.001-0.45-0.26-1.069,0.208-1.319c0.392-0.209,0.763,0.302,1.134,0.516c6.943,3.998,13.888,7.991,20.828,11.995
		c2.14,1.235,4.259,2.505,6.395,3.747c0.444,0.258,0.873,0.57,1.413,0.618c-4.415,2.562-8.824,5.134-13.246,7.683
		c-5.293,3.052-10.598,6.085-15.9,9.121C250.197,492.91,249.933,493.008,249.68,493.124z"/>
	<path fill="#62AFE1" d="M129.355,112.391c2.324-0.897,4.35-2.342,6.493-3.566c10.477-5.985,20.929-12.012,31.385-18.033
		c6.96-4.008,13.911-8.033,20.868-12.046c0.479-0.276,0.919-0.646,1.502-0.706c0.001,10.918,0.011,21.837-0.011,32.756
		c-0.002,1.102,0.185,2.122,0.579,3.144c14.38,37.3,28.75,74.603,43.121,111.907c5.24,13.602,10.474,27.206,15.734,40.801
		c0.164,0.425,0.068,1.095,0.775,1.196c-0.202,0.533-0.211,1.086-0.207,1.647c0.139,23.927-0.245,47.856,0.207,71.783
		c0.084,4.424-0.137,8.854-0.218,13.281c-0.389,0.203-0.785,0.392-1.165,0.611c-9.613,5.549-19.224,11.101-28.835,16.652
		c-1.15-1.883-1.769-3.998-2.583-6.023c-5.387-13.395-10.73-26.808-16.085-40.216c-5.444-13.63-10.885-27.261-16.33-40.891
		c-5.355-13.408-10.713-26.815-16.069-40.222c-5.444-13.63-10.886-27.261-16.331-40.891c-5.223-13.074-10.447-26.148-15.675-39.221
		c-2.118-5.296-4.249-10.586-6.362-15.884c-0.16-0.402-0.221-0.843-0.327-1.266c0.286,0.135,0.583,0.25,0.855,0.407
		c6.419,3.702,12.83,7.417,19.253,11.111c3.206,1.844,6.434,3.65,9.652,5.474c2.838,1.855,5.837,3.434,8.769,5.128
		c6.77,3.912,13.554,7.799,20.307,11.739c0.88,0.513,0.95,0.265,0.949-0.566c-0.014-10.836-0.017-21.673,0.009-32.509
		c0.002-0.706-0.255-1.115-0.817-1.435c-1.769-1.005-3.538-2.01-5.3-3.028c-5.942-3.43-11.874-6.878-17.825-10.292
		c-2-1.147-3.903-2.474-6.063-3.332c-0.257-0.215-0.447,0.008-0.635,0.117c-9.455,5.463-18.909,10.929-28.359,16.401
		c-0.327,0.189-0.787,0.261-0.813,0.775c-0.382-0.363-0.197-0.83-0.198-1.245c-0.011-10.644-0.008-21.289-0.012-31.933
		C129.593,113.466,129.696,112.894,129.355,112.391z"/>
	<path fill="#E8E9E9" d="M219.582,371.819c9.611-5.551,19.222-11.103,28.835-16.652c0.379-0.219,0.776-0.408,1.165-0.611
		c0.117,0.906,0.975,0.986,1.554,1.314c9.408,5.325,18.833,10.622,28.253,15.926c-1.507,1.259-3.296,2.065-4.972,3.046
		c-8.062,4.715-16.151,9.383-24.236,14.061c-0.338,0.195-0.649,0.479-1.08,0.473c-9.603-5.545-19.204-11.092-28.812-16.628
		C219.901,372.523,219.485,372.384,219.582,371.819z"/>
	<path fill="#E8E9E9" d="M129.364,251.012c1.419,0.371,2.554,1.292,3.792,2.002c8.526,4.89,17.034,9.81,25.546,14.723
		c0.266,0.153,0.514,0.337,0.879,0.578c-3.132,1.81-6.17,3.568-9.209,5.323c-6.644,3.835-13.291,7.663-19.927,11.512
		c-0.563,0.327-0.983,0.418-1.614,0.052c-9.535-5.538-19.091-11.041-28.64-16.557c-0.201-0.116-0.365-0.296-0.546-0.447
		c0.284-0.143,0.576-0.272,0.852-0.431c4.974-2.872,9.949-5.74,14.916-8.623C120.068,256.441,124.714,253.723,129.364,251.012z"/>
	<path fill="#FEFEFE" d="M249.526,458.781c-10.013-5.783-19.897-11.492-29.957-17.301c10.026-5.793,19.931-11.516,29.957-17.308
		C249.526,435.742,249.526,447.154,249.526,458.781z"/>
	<path fill="#E8E9E9" d="M69.426,77.827c0.052-0.005,0.105-0.01,0.157-0.013c0,11.436,0,22.873,0,34.283
		c-0.238,0.184-0.407,0.047-0.57-0.047c-9.69-5.598-19.378-11.199-29.066-16.8c-0.068-0.039-0.124-0.1-0.185-0.151
		c0.216-0.373,0.616-0.494,0.956-0.691C50.286,88.878,59.856,83.353,69.426,77.827z"/>
	<path fill="#62AFE1" d="M159.595,389.657c0-5.32-0.003-10.639,0.007-15.959c0.001-0.341-0.181-0.799,0.164-1.001
		c0.347-0.204,0.646,0.175,0.947,0.349c6.57,3.784,13.142,7.563,19.709,11.351c2.73,1.575,5.439,3.186,8.177,4.748
		c0.859,0.49,0.801,0.725-0.044,1.209c-7.544,4.33-15.063,8.704-22.591,13.06c-1.727,0.999-3.463,1.983-5.197,2.97
		c-1.079,0.614-1.17,0.567-1.17-0.65C159.592,400.376,159.595,395.016,159.595,389.657z"/>
	<path fill="#62AFE1" d="M69.426,77.827c-9.57,5.526-19.14,11.051-28.707,16.58c-0.34,0.197-0.741,0.318-0.956,0.691
		c-0.231-0.228-0.164-0.52-0.164-0.792c0.003-11.264,0.01-22.528,0.015-33.792c2.887,1.624,5.787,3.224,8.658,4.876
		c6.616,3.806,13.219,7.633,19.82,11.464C68.564,77.128,69.121,77.312,69.426,77.827z"/>
	<path fill="#62AFE1" d="M129.364,251.012c-4.65,2.711-9.296,5.429-13.951,8.131c-4.967,2.883-9.942,5.752-14.916,8.623
		c-0.275,0.159-0.567,0.288-0.852,0.431c-0.017-1.839-0.047-3.677-0.048-5.516c-0.005-9.237,0.004-18.475-0.012-27.712
		c-0.001-0.847-0.031-1.299,1.03-0.678c7.093,4.15,14.217,8.247,21.334,12.355C124.434,248.081,126.993,249.387,129.364,251.012z"/>
	<path fill="#E8E9E9" d="M279.491,406.617c0.622-0.305,1.245-0.609,1.867-0.914c-0.463,0.637-1.044,1.057-1.786,1.213
		C279.545,406.817,279.518,406.717,279.491,406.617z"/>
	<path fill="#2890CA" d="M279.389,371.795c-9.421-5.303-18.845-10.601-28.253-15.926c-0.58-0.328-1.437-0.408-1.554-1.314
		c0.08-4.427,0.301-8.857,0.218-13.281c-0.452-23.927-0.068-47.856-0.207-71.783c-0.003-0.561,0.005-1.115,0.207-1.647
		c2.701-7.047,5.411-14.09,8.09-21.146c0.23-0.607,0.699-0.837,1.173-1.112c6.503-3.76,13-7.531,19.526-11.25
		c0.81-0.462,1.062-0.963,1.06-1.875c-0.031-13.676-0.019-27.351-0.03-41.027c-0.001-0.774,0.136-1.487,0.415-2.211
		c9.74-25.264,19.466-50.533,29.207-75.796c0.266-0.689,0.374-1.367,0.373-2.097c-0.01-10.717-0.01-21.433,0.004-32.15
		c0.001-0.449-0.207-0.957,0.212-1.351c4.053,2.373,8.098,4.76,12.162,7.116c5.861,3.398,11.735,6.772,17.603,10.157
		c0,11.521,0,23.042,0,34.623c2.133-1.22,4.139-2.359,6.138-3.512c7.701-4.445,15.397-8.899,23.106-13.33
		c0.5-0.287,0.773-0.557,0.772-1.183c-0.029-11.231-0.034-22.462-0.045-33.692c2.804,1.355,5.424,3.038,8.119,4.586
		c7.234,4.154,14.448,8.343,21.671,12.518c0.234,0.352,0.244,0.746,0.244,1.151c-0.005,22.555-0.007,45.111-0.01,67.666
		c0,0.12-0.013,0.239-0.02,0.359c-0.215-0.105-0.437-0.197-0.643-0.316c-9.442-5.452-18.885-10.903-28.321-16.366
		c-0.61-0.353-1.089-0.573-1.832-0.139c-7.312,4.268-14.655,8.484-21.987,12.718c-2.363,1.365-4.719,2.741-7.215,4.192
		c10.121,5.846,20.077,11.597,30.032,17.347c0,11.455,0,22.91,0,34.589c-2.497-1.444-4.798-2.775-7.1-4.105
		c-4.869-2.812-9.743-5.616-14.604-8.443c-0.578-0.336-0.881-0.308-1.145,0.361c-2.304,5.819-4.626,11.63-6.957,17.437
		c-0.234,0.583-0.21,1.171-0.21,1.768c-0.001,14.311,0.2,28.627-0.063,42.933c-0.22,11.945-0.038,23.887-0.182,35.829
		c-0.005,0.372,0.17,0.818-0.286,1.081c-0.264-0.174-0.52-0.363-0.794-0.521c-7.984-4.615-15.978-9.211-23.943-13.859
		c-0.942-0.55-1.311-0.523-1.743,0.565c-4.979,12.533-10.008,25.047-15.024,37.566c-4.543,11.318-9.088,22.634-13.628,33.953
		c-1.336,3.33-2.654,6.668-3.994,9.997C279.797,371.202,279.571,371.49,279.389,371.795z"/>
	<path fill="#E8E9E9" d="M369.602,181.725c-9.956-5.75-19.911-11.501-30.032-17.347c2.496-1.451,4.852-2.827,7.215-4.192
		c7.332-4.235,14.675-8.45,21.987-12.718c0.744-0.434,1.222-0.214,1.832,0.139c9.436,5.463,18.878,10.914,28.321,16.366
		c0.206,0.119,0.428,0.211,0.643,0.316c-2.301,1.583-4.786,2.854-7.195,4.254C384.789,172.95,377.193,177.333,369.602,181.725z"/>
	<path fill="#FEFEFE" d="M297.55,326.926c5.016-12.519,10.045-25.032,15.024-37.566c0.432-1.088,0.801-1.115,1.743-0.565
		c7.965,4.648,15.959,9.244,23.943,13.859c0.274,0.158,0.53,0.346,0.794,0.521c-3.899,2.276-7.789,4.567-11.697,6.827
		c-9.619,5.562-19.244,11.111-28.872,16.657C298.207,326.819,297.965,327.206,297.55,326.926z"/>
	<path fill="#2890CA" d="M309.784,389.656c1.433-1.362,3.257-2.11,4.926-3.089c6.017-3.53,12.072-6.994,18.115-10.478
		c2.003-1.155,4.029-2.272,6.015-3.455c0.625-0.372,0.764-0.203,0.744,0.419c-0.007,0.2,0,0.4,0,0.599
		c0,10.549,0.005,21.098-0.016,31.646c-0.001,0.445,0.34,1.085-0.43,1.31C329.353,400.958,319.569,395.307,309.784,389.656z"/>
	<path fill="#2890CA" d="M369.526,251.003c3.103-1.799,5.996-3.483,8.896-5.156c6.531-3.768,13.065-7.53,19.597-11.296
		c0.138-0.08,0.266-0.177,0.405-0.255c1.077-0.607,1.165-0.563,1.165,0.657c0.003,10.677,0.003,21.354,0,32.03
		c0,1.24-0.092,1.299-1.147,0.689c-7.976-4.615-15.946-9.239-23.923-13.853C372.936,252.904,371.334,252.021,369.526,251.003z"/>
	<path fill="#2890CA" d="M429.854,77.625c9.731-5.624,19.461-11.248,29.194-16.869c0.168-0.097,0.364-0.146,0.547-0.218
		c-0.001,10.999-0.002,21.998-0.004,32.997c0,1.469-0.026,1.51-1.317,0.769c-5.364-3.079-10.713-6.183-16.067-9.279
		c-3.834-2.217-7.668-4.435-11.499-6.657C430.38,78.177,429.914,78.13,429.854,77.625z"/>
	<path fill="#E8E9E9" d="M309.784,389.656c9.785,5.651,19.569,11.302,29.354,16.953c0.018,0.531-0.458,0.626-0.774,0.809
		c-9.37,5.426-18.747,10.838-28.125,16.25c-0.132,0.076-0.285,0.117-0.432,0.176c-0.356-0.308-0.203-0.691-0.204-1.019
		c-0.016-10.678-0.022-21.357-0.019-32.035C309.584,390.409,309.43,389.982,309.784,389.656z"/>
	<path fill="#E8E9E9" d="M284.381,403.991c-0.201,0.498-0.514,0.522-0.869,0.682C283.653,404.127,283.995,404.154,284.381,403.991z"
		/>
	<path fill="#E8E9E9" d="M282.756,405.015c-0.31,0.401-0.537,0.571-0.931,0.539C281.966,405.149,282.264,405.084,282.756,405.015z"
		/>
	<path fill="#E8E9E9" d="M287.027,402.533c-0.123,0.214-0.289,0.365-0.553,0.358c-0.019-0.001-0.06-0.076-0.05-0.096
		c0.13-0.265,0.383-0.235,0.617-0.249L287.027,402.533z"/>
	<path fill="#E8E9E9" d="M284.884,403.744c0.129-0.226,0.272-0.425,0.596-0.337c-0.081,0.378-0.371,0.301-0.612,0.321
		L284.884,403.744z"/>
	<path fill="#E8E9E9" d="M288.962,401.341c0.084-0.055,0.167-0.111,0.251-0.166c0.035,0.257-0.191,0.075-0.262,0.156
		L288.962,401.341z"/>
	<path fill="#E8E9E9" d="M287.763,402.063c0.1-0.197,0.287-0.219,0.477-0.238l-0.012-0.011c-0.101,0.196-0.288,0.22-0.477,0.237
		L287.763,402.063z"/>
	<path fill="#E8E9E9" d="M288.951,401.33c-0.033,0.037-0.066,0.074-0.1,0.111c0.007-0.02,0.009-0.046,0.023-0.057
		c0.025-0.019,0.058-0.029,0.087-0.043C288.962,401.341,288.951,401.33,288.951,401.33z"/>
	<path fill="#E8E9E9" d="M288.24,401.825c0.034-0.036,0.069-0.072,0.103-0.108c-0.008,0.02-0.01,0.048-0.025,0.058
		c-0.026,0.018-0.059,0.026-0.09,0.038C288.228,401.813,288.24,401.825,288.24,401.825z"/>
	<path fill="#E8E9E9" d="M287.751,402.05c-0.036,0.037-0.072,0.075-0.108,0.112c0.008-0.021,0.01-0.052,0.025-0.062
		c0.027-0.019,0.063-0.026,0.095-0.037C287.763,402.063,287.751,402.05,287.751,402.05z"/>
	<path fill="#E8E9E9" d="M287.041,402.546c0.036-0.039,0.072-0.078,0.108-0.117c-0.007,0.023-0.008,0.055-0.023,0.066
		c-0.028,0.02-0.065,0.026-0.098,0.039C287.027,402.533,287.041,402.546,287.041,402.546z"/>
	<polygon fill="#E8E9E9" points="285.949,403.18 285.923,403.117 285.991,403.126 	"/>
	<path fill="#E8E9E9" d="M284.868,403.728c-0.039,0.042-0.079,0.083-0.118,0.125c0.008-0.026,0.007-0.064,0.024-0.074
		c0.031-0.02,0.073-0.024,0.11-0.035C284.884,403.744,284.868,403.728,284.868,403.728z"/>
	<polygon fill="#E8E9E9" points="283.081,404.768 283.114,404.841 283.032,404.832 	"/>
	<path fill="#62AFE1" d="M369.564,78.009c0.01,11.231,0.016,22.462,0.045,33.692c0.002,0.626-0.272,0.896-0.772,1.183
		c-7.709,4.431-15.405,8.885-23.106,13.33c-1.998,1.153-4.005,2.292-6.138,3.512c0-11.581,0-23.102,0-34.623
		c9.623-5.564,19.245-11.129,28.87-16.69C368.804,78.216,369.131,77.962,369.564,78.009z"/>
	<path fill="#2890CA" d="M159.61,129.902c2.159,0.858,4.063,2.185,6.063,3.332c5.951,3.414,11.883,6.862,17.825,10.292
		c1.762,1.017,3.531,2.022,5.3,3.028c0.562,0.319,0.818,0.729,0.817,1.435c-0.026,10.836-0.023,21.673-0.009,32.509
		c0.001,0.831-0.069,1.08-0.949,0.566c-6.753-3.94-13.537-7.827-20.307-11.739c-2.932-1.694-5.931-3.273-8.769-5.128
		C159.59,152.765,159.6,141.333,159.61,129.902z"/>
	<path fill="#FEFEFE" d="M159.61,129.902c-0.01,11.431-0.02,22.863-0.03,34.294c-3.218-1.823-6.446-3.63-9.652-5.474
		c-6.423-3.694-12.834-7.409-19.253-11.111c-0.273-0.157-0.57-0.273-0.855-0.407c0,0-0.017-0.009-0.017-0.009
		c0.026-0.514,0.486-0.586,0.813-0.775c9.45-5.472,18.903-10.938,28.359-16.401C159.163,129.91,159.352,129.687,159.61,129.902z"/>
</g>
</svg>
