<?xml version="1.0" encoding="UTF-8" standalone="no"?>
<!-- Created with Inkscape (http://www.inkscape.org/) -->

<svg
   xmlns:dc="http://purl.org/dc/elements/1.1/"
   xmlns:cc="http://creativecommons.org/ns#"
   xmlns:rdf="http://www.w3.org/1999/02/22-rdf-syntax-ns#"
   xmlns:svg="http://www.w3.org/2000/svg"
   xmlns="http://www.w3.org/2000/svg"
   xmlns:sodipodi="http://sodipodi.sourceforge.net/DTD/sodipodi-0.dtd"
   xmlns:inkscape="http://www.inkscape.org/namespaces/inkscape"
   version="1.1"
   width="365.13324"
   height="201.1785"
   id="svg2"
   xml:space="preserve"
   inkscape:version="0.91 r13725"
   sodipodi:docname="DO.svg"><sodipodi:namedview
     pagecolor="#ffffff"
     bordercolor="#666666"
     borderopacity="1"
     objecttolerance="10"
     gridtolerance="10"
     guidetolerance="10"
     inkscape:pageopacity="0"
     inkscape:pageshadow="2"
     inkscape:window-width="1647"
     inkscape:window-height="1040"
     id="namedview3446"
     showgrid="false"
     fit-margin-top="0"
     fit-margin-left="0"
     fit-margin-right="0"
     fit-margin-bottom="0"
     inkscape:zoom="1.4142136"
     inkscape:cx="118.43867"
     inkscape:cy="43.374102"
     inkscape:window-x="0"
     inkscape:window-y="0"
     inkscape:window-maximized="0"
     inkscape:current-layer="svg2" /><metadata
     id="metadata8"><rdf:RDF><cc:Work
         rdf:about=""><dc:format>image/svg+xml</dc:format><dc:type
           rdf:resource="http://purl.org/dc/dcmitype/StillImage" /><dc:title></dc:title></cc:Work></rdf:RDF></metadata><defs
     id="defs6"><clipPath
       id="clipPath18"><path
         d="m 0,0 3940.82,0 0,2524 L 0,2524 0,0 Z"
         inkscape:connector-curvature="0"
         id="path20" /></clipPath><radialGradient
       cx="0"
       cy="0"
       r="1"
       fx="0"
       fy="0"
       id="radialGradient24"
       gradientUnits="userSpaceOnUse"
       gradientTransform="matrix(23.87375,0,0,23.87375,12.615125,289.05737)"
       spreadMethod="pad"><stop
         id="stop26"
         style="stop-color:#6db2e5;stop-opacity:1"
         offset="0" /><stop
         id="stop28"
         style="stop-color:#3578c1;stop-opacity:1"
         offset="1" /></radialGradient></defs><g
     id="g3836"
     transform="translate(-60.42675,0.00125)"><path
       style="fill:#6db2e5;fill-opacity:1;fill-rule:evenodd;stroke:none"
       id="path22"
       inkscape:connector-curvature="0"
       d="M 82.34175,192.7315 C 147.8525,150.64875 222.115,180.92125 259.10375,201.17725 207.8675,180.94125 132.7475,176.195 82.34175,192.7315" /><path
       style="fill:url(#radialGradient24);fill-opacity:1;fill-rule:evenodd;stroke:none"
       id="path30"
       inkscape:connector-curvature="0"
       d="m 98.34575,168.26125 c -10.644625,7.8575 -16.642625,14.48625 -16.642625,14.48625 0,0.285 6.187,-3.4675 16.642625,-7.87625 l 0,-6.61 z m 0,-26.1 c -6.901375,-13.36375 -4.5225,-28.53 -4.5225,-28.53 0,0 -11.684125,26.79125 4.5225,42.7475 l 0,-14.2175 z m 0,-71.17625 0,24.33625 c -10.791,6.2025 -18.046,17.7475 -18.046,30.9675 0,13.21875 7.255875,24.76375 18.046,30.96875 l 0,4.34375 c -4.349125,2.94125 -8.588875,6.075 -12.100125,8.7675 -15.53375,-9.91125 -25.818875,-27.15875 -25.818875,-46.78 0,-24.36 15.849125,-45.06 37.919,-52.60375 l 0,0 z m 0,24.33625 0,-24.33625 c 5.00487,-1.71125 10.329,-2.7475 15.86075,-2.99375 -0.28463,2.77875 -0.43263,5.60125 -0.43263,8.455 0,4.7975 0.418,9.49625 1.21388,14.0675 -6.04925,0.255 -11.71425,1.97375 -16.642,4.8075 z m 0,66.28 c 3.80712,-2.575 7.69863,-5.00125 11.25575,-6.8525 -1.73775,-1.105 -3.36425,-2.3675 -4.8315,-3.81125 -2.73438,-2.68875 -4.827625,-5.685 -6.42425,-8.77625 l 0,14.2175 c 0.138125,0.13625 0.274875,0.27375 0.417,0.40875 0.6865,0.6475 1.40275,1.24875 2.1415,1.81 -0.873,-0.41375 -1.726,-0.86125 -2.5585,-1.34 l 0,4.34375 z m 0,13.27 0,-6.61 c 20.476,-15.11625 58.153,-34.78375 103.453,-20.58875 68.84875,21.575 112.6625,50.92513 165.86625,37.715 53.20125,-13.20875 57.895,-42.2675 57.895,-42.2675 0,0 -9.38875,41.04125 -61.8075,50.049 -52.42,9.00725 -100.70625,-1.09037 -162.12375,-23.9865 -41.4525,-15.4525 -81.575,-3.4675 -103.283,5.68875 l 0,0 z m 99.003,-174.8725 c 31.48,0 58.5725,18.555 70.67125,45.195 l -24.62625,0 c -10.87,-13.41 -27.585,-22.00125 -46.33125,-22.00125 -18.43625,0 -34.9075,8.305 -45.7875,21.33375 0.5825,-0.46375 1.17625,-0.92625 1.80125,-1.37125 25.7375,-18.37 60.0575,1.87875 60.0575,1.87875 0,0 -32.61375,-9.42875 -54.66625,6.03 -22.05125,15.46125 -18.50625,46.4125 -18.50625,46.4125 0,0 -0.145,-0.40875 -0.3675,-1.15625 0.0913,0.35625 0.1875,0.71125 0.28625,1.065 -5.28875,-3.89125 -11.6975,-6.43875 -18.67837,-7.105 -0.831,-4.4875 -1.2675,-9.11 -1.2675,-13.83375 0,-42.2225 34.65962,-76.4475 77.41462,-76.4475 l 0,0" /><path
       style="fill:#6db2e5;fill-opacity:1;fill-rule:evenodd;stroke:none"
       id="path32"
       inkscape:connector-curvature="0"
       d="m 271.495,157.79375 c 0,0 32.86,16.82125 63.765,14.0825 30.90375,-2.7375 40.2925,-13.69125 40.2925,-13.69125 0,0 -11.345,20.92875 -41.07625,22.1025 -29.73,1.1725 -62.98125,-21.71125 -62.98125,-22.49375" /><path
       style="fill:#6db2e5;fill-opacity:1;fill-rule:evenodd;stroke:none"
       id="path34"
       inkscape:connector-curvature="0"
       d="m 246.3025,79.13125 27.62212,0 0,-27.619125 -27.62212,0 0,27.619125 z" /><path
       style="fill:#3e86ce;fill-opacity:1;fill-rule:evenodd;stroke:none"
       id="path36"
       inkscape:connector-curvature="0"
       d="m 355.995,149.3975 21.36375,0 0,-21.35987 -21.36375,0 0,21.35987 z" /><path
       style="fill:#6db2e5;fill-opacity:1;fill-rule:evenodd;stroke:none"
       id="path38"
       inkscape:connector-curvature="0"
       d="m 279.5875,63.03375 36.8325,0 0,-36.829125 -36.8325,0 0,36.829125 z" /><path
       style="fill:#3e86ce;fill-opacity:1;fill-rule:evenodd;stroke:none"
       id="path40"
       inkscape:connector-curvature="0"
       d="m 386.52,126.7675 36.834,0 0,-36.829125 -36.834,0 0,36.829125 z" /><path
       style="fill:#6db2e5;fill-opacity:1;fill-rule:evenodd;stroke:none"
       id="path42"
       inkscape:connector-curvature="0"
       d="m 319.95125,86.395 20.53613,0 0,-20.53225 -20.53613,0 0,20.53225 z" /><path
       style="fill:#6db2e5;fill-opacity:1;fill-rule:evenodd;stroke:none"
       id="path44"
       inkscape:connector-curvature="0"
       d="m 333.68625,126.8375 20.53512,0 0,-20.53225 -20.53512,0 0,20.53225 z" /><path
       style="fill:#3e86ce;fill-opacity:1;fill-rule:evenodd;stroke:none"
       id="path46"
       inkscape:connector-curvature="0"
       d="m 290.46,128.8875 20.53375,0 0,-20.53275 -20.53375,0 0,20.53275 z" /><path
       style="fill:#3e86ce;fill-opacity:1;fill-rule:evenodd;stroke:none"
       id="path48"
       inkscape:connector-curvature="0"
       d="m 362.4425,87.1025 20.53512,0 0,-20.53225 -20.53512,0 0,20.53225 z" /></g></svg>