<?xml version="1.0" encoding="UTF-8" standalone="no"?>
<!-- Created with Inkscape (http://www.inkscape.org/) -->

<svg
   xmlns:dc="http://purl.org/dc/elements/1.1/"
   xmlns:cc="http://creativecommons.org/ns#"
   xmlns:rdf="http://www.w3.org/1999/02/22-rdf-syntax-ns#"
   xmlns:svg="http://www.w3.org/2000/svg"
   xmlns="http://www.w3.org/2000/svg"
   xmlns:sodipodi="http://sodipodi.sourceforge.net/DTD/sodipodi-0.dtd"
   xmlns:inkscape="http://www.inkscape.org/namespaces/inkscape"
   version="1.1"
   width="75.491234"
   height="77.752396"
   id="svg2"
   xml:space="preserve"
   inkscape:version="0.91 r13725"
   sodipodi:docname="rackspace.svg"><sodipodi:namedview
     pagecolor="#ffffff"
     bordercolor="#666666"
     borderopacity="1"
     objecttolerance="10"
     gridtolerance="10"
     guidetolerance="10"
     inkscape:pageopacity="0"
     inkscape:pageshadow="2"
     inkscape:window-width="1340"
     inkscape:window-height="898"
     id="namedview3998"
     showgrid="false"
     fit-margin-top="0"
     fit-margin-left="0"
     fit-margin-right="0"
     fit-margin-bottom="0"
     inkscape:zoom="1.5"
     inkscape:cx="184.62118"
     inkscape:cy="22.977761"
     inkscape:window-x="0"
     inkscape:window-y="0"
     inkscape:window-maximized="0"
     inkscape:current-layer="svg2" /><metadata
     id="metadata8"><rdf:RDF><cc:Work
         rdf:about=""><dc:format>image/svg+xml</dc:format><dc:type
           rdf:resource="http://purl.org/dc/dcmitype/StillImage" /><dc:title></dc:title></cc:Work></rdf:RDF></metadata><defs
     id="defs6" /><g
     id="g4150"
     transform="translate(-2.6100665,0.00588379)"><path
       style="fill:#e3182c;fill-opacity:1;fill-rule:evenodd;stroke:none"
       id="path70"
       inkscape:connector-curvature="0"
       d="m 59.797875,9.785 c 0.0185,0.00737 0.03075,0.026875 0.03075,0.047875 0,0.00737 -0.0015,0.01325 -0.0025,0.017125 -1.31975,3.73875 -3.50825,7.99175 -5.677625,11.21975 -4.568875,6.784125 -11.129,11.064 -14.647,9.555125 -3.517125,-1.50725 -2.670875,-8.232375 1.90275,-15.0205 C 42.433625,14.081 43.5615,12.6845 44.731,11.4515 c 0.0082,-0.01112 0.01462,-0.02337 0.01462,-0.0365 0,-0.02837 -0.0235,-0.05137 -0.05125,-0.05137 0,0 -0.0064,0 -0.0074,10e-4 -1.437,0.19925 -2.893,0.4825 -4.36275,0.8545 -0.0097,0.0015 -0.0195,0.0087 -0.02687,0.01713 -15.4385,18.933125 -22.008375,43.522 -21.105,65.459 l 0,0 c 0,0.02925 -0.022,0.05125 -0.05125,0.05125 -0.0059,0 -0.01325,0 -0.0195,-0.0025 C 10.021487,74.077 3.3711,65.284625 2.6777375,54.15275 L 2.66895,54.023375 C 1.5205125,34.217625 17.309125,13.929625 37.939,8.707375 45.932125,6.6835 53.484375,7.21675 59.797875,9.785 Z M 41.811,21.04725 c -1.4795,3.120125 -0.891125,5.681125 1.316,5.72025 2.207,0.039 5.198625,-2.456125 6.67725,-5.57375 1.480375,-3.121125 0.891,-5.682125 -1.316,-5.722625 -2.207,-0.03663 -5.19775,2.4585 -6.67725,5.576125" /><path
       style="fill:#231f20;fill-opacity:1;fill-rule:nonzero;stroke:none"
       id="path72"
       inkscape:connector-curvature="0"
       d="m 53.961875,63.203 c -1.499,1.0415 -3.063875,2.0035 -4.680125,2.871625 -0.0074,0.0019 -0.01613,0.0044 -0.0235,0.0044 -0.02775,0 -0.05125,-0.022 -0.05225,-0.04887 -0.30175,-4.75575 -1.325625,-9.36275 -3.097125,-13.19575 -4.722625,-10.231875 -12.977,-11.02 -18.431125,-1.756375 -3.3365,5.669 -4.856,13.7925 -4.444875,21.590375 0,0.022 0.01462,0.042 0.03425,0.04687 C 29.05325,74.52775 35.71975,74.7265 42.8315,72.932 63.430625,67.683 79.189,47.415875 78.0425,27.63075 77.034125,10.250375 63.32475,-0.9815 46.042,0.061 c -0.01225,0 -0.0235,0.004875 -0.03175,0.014625 -1.681125,1.700625 -3.254375,3.417 -4.7305,5.150375 -0.0072,0.00825 -0.01212,0.0205 -0.01212,0.03175 0,0.02925 0.02337,0.05225 0.05125,0.05225 0.0014,0 0.0049,0 0.0072,-10e-4 10.127,-1.28175 18.244625,0.776375 23.5415,4.996125 0.01225,0.0098 0.01962,0.02437 0.01962,0.0405 0,0.0098 -0.0025,0.0205 -0.0074,0.02787 -18.251,25.729875 -15.99125,40.388625 -10.899875,52.7675 0.0024,0.0059 0.0039,0.01225 0.0039,0.0195 0,0.01713 -0.0087,0.03275 -0.022,0.0425" /></g></svg>